<svg width="1166" height="459" viewBox="0 0 1166 459" fill="none" xmlns="http://www.w3.org/2000/svg">
<mask id="mask0_4334_3246" style="mask-type:luminance" maskUnits="userSpaceOnUse" x="0" y="0" width="656" height="192">
<path d="M0 0H655.872V191.296H0V0Z" fill="white"/>
</mask>
<g mask="url(#mask0_4334_3246)">
<mask id="mask1_4334_3246" style="mask-type:luminance" maskUnits="userSpaceOnUse" x="-6" y="-163" width="739" height="564">
<path d="M116.02 -162.598L732.056 52.3257L610.539 400.651L-5.49756 185.745L116.02 -162.598Z" fill="white"/>
</mask>
<g mask="url(#mask1_4334_3246)">
<mask id="mask2_4334_3246" style="mask-type:luminance" maskUnits="userSpaceOnUse" x="-6" y="-163" width="739" height="564">
<path d="M116.02 -162.598L732.056 52.3257L610.539 400.651L-5.49756 185.745L116.02 -162.598Z" fill="white"/>
</mask>
<g mask="url(#mask2_4334_3246)">
<path d="M610.486 124.364C615.432 110.184 619.88 97.427 624.328 84.6704C632.245 96.8221 641.781 108.387 647.546 121.321C651.887 131.035 651.994 142.511 652.705 153.204C653.061 158.63 651.602 168.523 649.254 168.914C618.439 173.878 587.356 177.81 556.132 180.799C553.944 180.994 547.592 171.351 548.072 166.975C548.535 162.794 554.709 157.563 559.584 156.246C569.12 153.684 579.457 153.56 593.263 151.976C561.63 109.116 521.083 81.9482 475.305 62.1105C339.056 3.13117 186.403 30.1389 73.8178 132.601C57.8942 147.084 45.0665 164.591 29.0717 179.02C23.1649 184.339 12.2942 184.802 3.70082 187.471C4.03887 178.913 0.78299 167.74 5.21311 162.189C166.085 -38.7326 447.674 -46.7745 605.379 119.898C607.977 122.638 611.108 124.915 610.486 124.364Z" fill="white"/>
</g>
</g>
</g>
<mask id="mask3_4334_3246" style="mask-type:luminance" maskUnits="userSpaceOnUse" x="528" y="59" width="156" height="156">
<path d="M528.341 59.2109H683.2V214.07H528.341V59.2109Z" fill="white"/>
</mask>
<g mask="url(#mask3_4334_3246)">
<mask id="mask4_4334_3246" style="mask-type:luminance" maskUnits="userSpaceOnUse" x="-6" y="-163" width="739" height="564">
<path d="M116.02 -162.598L732.056 52.3257L610.539 400.651L-5.49756 185.745L116.02 -162.598Z" fill="white"/>
</mask>
<g mask="url(#mask4_4334_3246)">
<mask id="mask5_4334_3246" style="mask-type:luminance" maskUnits="userSpaceOnUse" x="-6" y="-163" width="739" height="564">
<path d="M116.02 -162.598L732.056 52.3257L610.539 400.651L-5.49756 185.745L116.02 -162.598Z" fill="white"/>
</mask>
<g mask="url(#mask5_4334_3246)">
<path d="M590.434 76.7011C577.215 97.6063 562.662 117.658 546.809 136.623C542.326 142.014 537.718 147.298 533.021 152.511C530.637 156.034 529.267 159.931 528.946 164.201C528.626 167.278 529.071 170.232 530.263 173.043C530.992 175.961 532.38 178.576 534.462 180.836C537.202 184.038 540.547 186.316 544.514 187.721C558.819 191.19 573.159 194.642 587.481 198.111C603.209 201.919 618.901 205.975 634.789 209.089C642.493 210.619 650.303 211.58 658.167 211.259C662.242 211.526 666.138 210.761 669.839 208.982C673.522 207.203 676.511 204.623 678.877 201.261C681.279 197.738 682.631 193.824 682.951 189.571C683.2 185.479 682.453 181.583 680.674 177.9C671.244 149.843 659.555 122.55 645.713 96.3965C641.763 88.9062 637.618 81.5405 633.33 74.2459C631.302 70.8121 628.936 67.5206 625.591 65.2077C623.74 64.2647 621.89 63.3218 620.022 62.3788C617.033 61.2046 614.008 60.8487 610.895 61.3113C608.849 61.2046 606.909 61.5782 605.059 62.45C603.066 62.8592 601.305 63.7132 599.757 65.012C595.647 67.6985 591.751 71.8262 590.381 76.6833C586.289 91.148 585.542 106.573 589.189 121.216C591.004 128.439 593.512 135.716 597 142.299C600.433 148.793 604.597 155.127 609.507 160.607C614.969 166.656 621.374 172.296 628.42 176.441C633.348 162.332 638.276 148.188 643.204 134.061C642.742 133.99 642.262 133.901 641.799 133.812C643.845 134.222 645.873 134.631 647.919 135.058C645.375 134.453 642.955 133.545 640.589 132.407C642.457 133.35 644.308 134.293 646.158 135.236C638.33 131.233 632.031 125.005 624.701 120.237C623.029 119.134 621.285 118.156 619.524 117.231C616.126 115.487 612.745 113.583 609.133 112.373C601.483 109.865 594.171 109.384 586.218 110.399C582.25 111.181 578.692 112.907 575.596 115.523C573.105 117.48 571.291 119.899 570.134 122.782C568.462 125.468 567.572 128.457 567.465 131.695C567.216 135.769 567.981 139.666 569.743 143.366C573.888 150.038 578.229 156.39 583.958 161.799C589.705 167.207 595.558 172.189 602.533 175.961C607.443 161.834 612.389 147.708 617.318 133.581C605.095 132.691 592.569 133.439 580.542 135.716C574.796 136.801 569.156 140.538 565.864 145.324C562.59 150.074 560.793 157.315 562.163 163.026C563.551 168.773 566.629 174.484 571.771 177.704C577.108 181.049 583.193 182.597 589.491 181.405C594.313 180.48 599.188 179.857 604.081 179.537C602.088 179.661 600.077 179.786 598.067 179.911C603.44 179.59 608.831 179.626 614.204 180.017C616.197 179.893 618.225 179.768 620.218 179.644C623.26 179.146 625.982 177.971 628.366 176.139C632.512 173.417 636.266 169.36 637.725 164.467C638.917 160.5 639.219 156.426 638.596 152.316C638.116 149.273 636.942 146.569 635.091 144.185C633.65 141.498 631.604 139.328 628.989 137.655C624.167 135.04 619.702 131.873 615.627 128.208C617.104 129.542 618.599 130.912 620.093 132.247C616.054 128.528 612.496 124.365 609.471 119.793C610.539 121.447 611.624 123.12 612.71 124.792C612.372 124.24 611.998 123.689 611.66 123.12C606.162 134.115 600.665 145.11 595.167 156.088C595.807 155.999 596.448 155.945 597.106 155.892C595.096 156.016 593.085 156.159 591.093 156.283C593.014 156.212 594.918 156.372 596.804 156.746C594.758 156.319 592.73 155.91 590.683 155.5C593.459 156.105 596.074 157.102 598.619 158.347C596.75 157.404 594.9 156.461 593.05 155.518C599.348 158.703 604.65 163.293 610.272 167.492C613.19 169.663 616.179 171.691 619.399 173.345C622.548 175 625.786 176.815 629.185 178.007C632.725 179.252 636.461 179.839 640.127 180.498C642.137 180.373 644.147 180.249 646.158 180.124C649.2 179.644 651.905 178.469 654.289 176.619C658.434 173.915 662.188 169.84 663.647 164.948C664.839 160.98 665.142 156.906 664.519 152.814C664.039 149.771 662.864 147.049 661.014 144.665C659.573 141.979 657.545 139.808 654.911 138.136C651.424 136.072 648.168 133.688 645.144 131.001C646.638 132.336 648.133 133.688 649.609 135.04C645.517 131.322 641.959 127.123 638.917 122.532C640.002 124.187 641.069 125.842 642.173 127.532C638.952 122.568 636.372 117.248 634.487 111.662C635.109 113.548 635.732 115.416 636.372 117.319C634.593 111.893 633.472 106.289 633.081 100.595C633.206 102.588 633.33 104.598 633.455 106.609C633.117 101.093 633.472 95.5959 634.558 90.1872C634.131 92.2332 633.722 94.2793 633.295 96.3075C633.597 94.8664 633.953 93.4431 634.344 92.0375C620.04 92.856 605.735 93.6566 591.413 94.4928C606.447 119.988 619.417 146.694 630.128 174.288C633.188 182.17 636.052 190.123 638.757 198.129C646.265 187.009 653.755 175.907 661.263 164.788C652.919 165.108 644.663 163.987 636.497 162.332C638.543 162.759 640.571 163.169 642.617 163.596C628.9 160.749 615.307 157.155 601.697 153.864C587.748 150.501 573.799 147.121 559.851 143.758C563.676 155.483 567.501 167.225 571.326 178.968C587.872 160.589 603.209 141.143 617.175 120.735C621.125 114.953 624.986 109.1 628.722 103.157C632.031 97.9266 633.615 91.6283 632.423 85.4546C631.337 79.9748 627.637 73.8011 622.815 70.7765C617.638 67.5384 611.233 65.5991 605.113 67.0936C599.366 68.4814 593.69 71.5593 590.434 76.7011Z" fill="white"/>
</g>
</g>
</g>
<path d="M312.587 427.66C314.188 427.66 316.537 425.24 319.632 420.401C322.764 415.561 325.255 410.366 327.105 404.815C328.955 399.264 329.916 395.475 330.023 393.428C330.023 391.347 329.098 389.497 327.247 387.877C322.07 385.315 317.391 385.084 313.227 387.166C309.1 389.265 305.755 392.841 303.193 397.912C300.666 403 299.812 408 300.631 412.928C301.2 415.828 302.855 419.013 305.613 422.464C308.406 425.934 310.737 427.66 312.587 427.66ZM358.632 411.718C362.083 428.371 363.827 438.441 363.827 441.893C363.827 445.362 363.062 447.782 361.55 449.152C360.019 450.522 357.582 451.216 354.219 451.216C350.892 451.216 348.597 450.291 347.316 448.44C346.071 446.59 344.754 442.106 343.331 434.99C341.943 427.838 340.982 424.244 340.413 424.244C340.075 424.244 338.225 426.788 334.862 431.858C328.973 441.306 321.305 446.021 311.875 446.021C302.428 446.021 294.528 441.181 288.177 431.503C283.426 424.101 280.811 417.412 280.348 411.434C279.921 405.42 281.202 399.3 284.191 393.073C287.18 386.81 291.041 381.33 295.792 376.633C300.524 371.794 304.723 368.787 308.388 367.595C318.209 364.286 328.421 365.851 339.061 372.292C345.27 376.099 349.184 379.48 350.803 382.469C352.405 385.369 355.02 395.119 358.632 411.718Z" fill="white"/>
<path d="M393.027 373.358C393.596 374.034 394.112 374.354 394.593 374.354C395.055 374.354 395.304 374.247 395.304 373.998C395.536 373.767 395.874 372.913 396.301 371.436C396.763 369.924 398.738 367.789 402.208 365.031C405.659 362.238 408.719 360.512 411.388 359.836C417.117 358.466 423.913 358.591 431.742 360.192C439.606 361.811 444.356 364.16 445.975 367.237C448.395 371.757 447.986 375.528 444.765 378.553C441.527 381.542 437.613 382.289 433.023 380.759C428.415 379.247 424.483 378.678 421.209 379.051C417.971 379.389 415.8 380.19 414.662 381.471C413.523 382.752 411.548 386.15 408.755 391.648C406.228 397.199 404.698 401.433 404.129 404.315C403.56 407.215 403.204 412.82 403.062 421.111C402.955 429.419 402.724 434.739 402.35 437.052C402.012 439.329 401.158 441.002 399.788 442.034C397.226 443.742 394.664 444.507 392.102 444.311C389.575 444.08 387.636 442.87 386.266 440.681C385.128 437.319 383.864 429.633 382.494 417.623C381.107 405.632 379.505 396.629 377.655 390.651C375.805 384.638 374.684 380.012 374.31 376.774C373.972 373.554 374.257 371.258 375.164 369.871C376.107 368.501 377.797 367.487 380.217 366.81C382.637 366.099 384.416 365.992 385.555 366.455C386.729 366.882 388.134 368.02 389.753 369.871C391.355 371.49 392.458 372.646 393.027 373.358Z" fill="white"/>
<path d="M476.606 373.358C477.176 374.034 477.692 374.354 478.172 374.354C478.635 374.354 478.884 374.247 478.884 373.998C479.115 373.767 479.453 372.913 479.88 371.436C480.343 369.924 482.318 367.789 485.787 365.031C489.239 362.238 492.299 360.512 494.967 359.836C500.696 358.466 507.493 358.591 515.321 360.192C523.185 361.811 527.935 364.16 529.554 367.237C531.974 371.757 531.565 375.528 528.345 378.553C525.107 381.542 521.192 382.289 516.602 380.759C511.994 379.247 508.062 378.678 504.788 379.051C501.55 379.389 499.38 380.19 498.241 381.471C497.102 382.752 495.128 386.15 492.334 391.648C489.808 397.199 488.278 401.433 487.708 404.315C487.139 407.215 486.783 412.82 486.641 421.111C486.534 429.419 486.303 434.739 485.929 437.052C485.591 439.329 484.737 441.002 483.367 442.034C480.805 443.742 478.243 444.507 475.681 444.311C473.155 444.08 471.216 442.87 469.846 440.681C468.707 437.319 467.444 429.633 466.074 417.623C464.686 405.632 463.085 396.629 461.234 390.651C459.384 384.638 458.263 380.012 457.89 376.774C457.552 373.554 457.836 371.258 458.744 369.871C459.687 368.501 461.377 367.487 463.796 366.81C466.216 366.099 467.995 365.992 469.134 366.455C470.308 366.882 471.714 368.02 473.333 369.871C474.934 371.49 476.037 372.646 476.606 373.358Z" fill="white"/>
<path d="M560.897 411.22C560.755 413.782 561.716 416.967 563.815 420.756C565.897 424.564 567.872 426.93 569.722 427.873C572.711 429.492 575.451 429.207 577.977 427.019C580.539 424.795 583.706 419.813 587.514 412.074C591.357 404.352 593.154 400.385 592.922 400.189C592.673 399.958 592.317 399.727 591.855 399.478L588.225 397.556C583.137 394.994 577.301 395.35 570.718 398.624C564.171 401.862 560.897 406.06 560.897 411.22ZM602.601 428.514C602.121 428.514 600.679 430.204 598.26 433.566V433.709H597.904C591.784 442.16 585.023 447.07 577.621 448.44C570.256 449.81 563.353 447.8 556.912 442.391C550.454 436.982 545.952 430.133 543.39 421.824C540.864 413.48 540.633 406.648 542.679 401.328C544.992 396.062 548.817 391.133 554.136 386.525C559.438 381.882 564.972 378.626 570.718 376.775C576.501 374.925 584.026 375.619 593.278 378.839C602.476 381.971 607.956 385.725 609.718 390.084C613.276 397.965 617.119 408.427 621.247 421.468C625.41 434.474 627.865 442.373 628.577 445.167C629.004 447.924 628.523 450.219 627.153 452.07C625.766 454.489 623.471 455.806 620.25 456.055C617.012 456.286 614.486 455.308 612.635 453.137C611.675 452.088 610.643 450.184 609.504 447.444C608.365 444.651 607.316 441.519 606.373 438.05C605.234 434.598 604.416 432.179 603.953 430.791C603.526 429.421 603.064 428.656 602.601 428.514ZM607.44 357.205C605.821 359.197 601.551 362.168 594.63 366.1C587.692 369.997 583.137 371.989 580.966 372.078C579.009 371.989 577.123 370.797 575.273 368.52C573.423 366.207 572.586 363.876 572.782 361.546C573.013 359.233 573.939 357.258 575.558 355.639C577.212 354.038 580.86 351.493 586.517 348.024C592.157 344.572 596.232 342.669 598.758 342.331C601.32 341.868 603.811 342.864 606.23 345.32C610.251 349.358 610.661 353.326 607.44 357.205Z" fill="white"/>
<path d="M675.959 385.243C674.429 382.165 673.113 380.047 671.974 378.909C670.835 377.734 669.199 377.13 667.064 377.13C664.929 377.13 663.256 378.233 662.082 380.403C660.374 384.015 660.196 386.862 661.584 388.943C662.954 390.989 667.508 394.21 675.248 398.622C682.969 402.999 688.805 407.126 692.755 411.005C696.687 414.848 699.338 419.1 700.725 423.744C702.095 428.352 702.433 432.106 701.722 434.988C701.046 437.835 698.982 440.877 695.53 444.097C683.752 455.769 669.732 457.156 653.471 448.296C645.963 444.222 641.408 440.237 639.807 436.34C638.188 432.408 639.558 428.779 643.934 425.452L648.276 422.32L658.31 428.156C663.612 431.536 667.882 433.458 671.12 433.921C674.34 434.348 677.027 433.849 679.162 432.426C681.297 431.003 682.24 429.935 682.009 429.224C681.76 428.512 680.55 426.946 678.379 424.527C675.959 422.249 670.924 418.815 663.292 414.207C655.695 409.564 650.286 405.739 647.066 402.75C644.077 399.761 642.226 397.483 641.515 395.918C640.803 394.352 640.394 391.79 640.305 388.232C640.305 381.738 642.191 375.617 645.998 369.871C649.788 364.088 654.343 360.388 659.662 358.769C662.456 357.879 666.174 357.665 670.835 358.128C675.532 358.555 679.126 359.373 681.653 360.548C684.215 361.686 687.15 365.28 690.477 371.294C693.84 377.272 695.53 381.542 695.53 384.104C695.53 386.63 694.32 388.925 691.901 391.007C689.232 393.053 686.866 393.978 684.784 393.783C682.685 393.551 681.083 392.84 679.945 391.648C678.806 390.42 677.472 388.285 675.959 385.243Z" fill="white"/>
<path d="M728.193 376.632C728.567 375.119 728.762 370.565 728.762 362.968C728.762 355.335 729.652 350.496 731.467 348.45C733.317 346.368 735.968 345.318 739.437 345.318C742.889 345.318 745.308 346.813 746.696 349.802C748.12 352.791 748.867 357.808 748.974 364.818V377.13H758.866C764.168 377.13 767.851 377.824 769.897 379.194C771.978 380.581 772.957 383.001 772.814 386.453C772.708 389.922 771.747 392.36 769.897 393.783C768.046 395.171 764.452 395.811 759.15 395.704C753.884 395.562 750.895 395.847 750.183 396.558C749.507 397.234 750.201 404.084 752.247 417.126C754.329 430.185 755.948 437.23 757.087 438.262C758.261 439.258 760.805 438.333 764.701 435.487C771.053 430.505 776.088 429.918 779.789 433.707C781.959 435.896 782.813 438.618 782.351 441.892C781.924 445.13 780.216 447.994 777.227 450.503C763.705 461.694 752.39 461.818 743.28 450.859C740.38 447.638 738.121 443.03 736.519 437.052C734.9 431.039 733.53 423.513 732.392 414.492C731.342 405.525 730.47 400.686 729.759 399.974C729.082 399.263 727.232 398.907 724.208 398.907C721.219 398.907 719.155 398.693 718.016 398.266C716.824 397.697 715.614 396.541 714.387 394.779C711.825 391.079 711.753 387.502 714.173 384.033C716.593 380.581 720.329 378.838 725.417 378.838C726.93 378.838 727.855 378.108 728.193 376.632Z" fill="white"/>
<path d="M811.789 373.358C812.358 374.034 812.874 374.354 813.354 374.354C813.817 374.354 814.066 374.247 814.066 373.998C814.297 373.767 814.635 372.913 815.062 371.436C815.525 369.924 817.5 367.789 820.969 365.031C824.421 362.238 827.481 360.512 830.15 359.836C835.878 358.466 842.675 358.591 850.503 360.192C858.367 361.811 863.118 364.16 864.737 367.237C867.156 371.757 866.747 375.528 863.527 378.553C860.289 381.542 856.374 382.289 851.784 380.759C847.176 379.247 843.244 378.678 839.971 379.051C836.732 379.389 834.562 380.19 833.423 381.471C832.285 382.752 830.31 386.15 827.516 391.648C824.99 397.199 823.46 401.433 822.891 404.315C822.321 407.215 821.965 412.82 821.823 421.111C821.716 429.419 821.485 434.739 821.111 437.052C820.773 439.329 819.919 441.002 818.549 442.034C815.987 443.742 813.425 444.507 810.863 444.311C808.337 444.08 806.398 442.87 805.028 440.681C803.889 437.319 802.626 429.633 801.256 417.623C799.868 405.632 798.267 396.629 796.417 390.651C794.566 384.638 793.445 380.012 793.072 376.774C792.734 373.554 793.018 371.258 793.926 369.871C794.869 368.501 796.559 367.487 798.979 366.81C801.398 366.099 803.177 365.992 804.316 366.455C805.49 366.882 806.896 368.02 808.515 369.871C810.116 371.49 811.219 372.646 811.789 373.358Z" fill="white"/>
<path d="M908.889 427.66C910.491 427.66 912.839 425.24 915.935 420.401C919.066 415.561 921.557 410.366 923.407 404.815C925.258 399.264 926.218 395.475 926.325 393.428C926.325 391.347 925.4 389.497 923.55 387.877C918.372 385.315 913.693 385.084 909.53 387.166C905.402 389.265 902.057 392.841 899.495 397.912C896.969 403 896.115 408 896.933 412.928C897.503 415.828 899.157 419.013 901.915 422.464C904.708 425.934 907.039 427.66 908.889 427.66ZM954.934 411.718C958.386 428.371 960.129 438.441 960.129 441.893C960.129 445.362 959.364 447.782 957.852 449.152C956.322 450.522 953.884 451.216 950.522 451.216C947.195 451.216 944.9 450.291 943.619 448.44C942.373 446.59 941.057 442.106 939.633 434.99C938.246 427.838 937.285 424.244 936.716 424.244C936.377 424.244 934.527 426.788 931.165 431.858C925.275 441.306 917.607 446.021 908.178 446.021C898.73 446.021 890.831 441.181 884.479 431.503C879.729 424.101 877.113 417.412 876.651 411.434C876.224 405.42 877.505 399.3 880.494 393.073C883.483 386.81 887.344 381.33 892.094 376.633C896.827 371.794 901.025 368.787 904.691 367.595C914.512 364.286 924.724 365.851 935.363 372.292C941.573 376.099 945.487 379.48 947.106 382.469C948.707 385.369 951.322 395.119 954.934 411.718Z" fill="white"/>
<path d="M1036.23 440.469C1035.09 443.227 1032.55 444.561 1028.61 444.455C1024.66 444.366 1022.14 443.067 1021 440.541C1019.86 437.979 1018.58 432.428 1017.16 423.888C1015.77 415.348 1014.4 408.302 1013.03 402.751C1011.64 397.2 1010.15 393.055 1008.54 390.297C1006.93 387.504 1005.59 386.294 1004.56 386.667C999.471 388.624 996.411 400.225 995.379 421.468C994.898 430.915 994.418 437.036 993.955 439.829C993.528 442.587 992.621 444.49 991.251 445.522C986.643 448.743 982.497 448.511 978.797 444.811C977.409 443.53 976.484 441.163 976.021 437.694C975.541 434.242 974.954 427.428 974.242 417.269C973.673 400.901 972.765 390.706 971.538 386.667C969.065 378.127 970.613 372.701 976.164 370.37C979.295 369.338 981.875 369.516 983.921 370.94C986.002 372.327 987.497 373.003 988.404 373.003C989.347 373.003 991.393 372.043 994.525 370.086C997.656 368.093 1001.29 367.097 1005.41 367.097C1009.58 367.097 1012.48 367.452 1014.1 368.164C1015.7 368.84 1018.17 371.064 1021.5 374.854C1024.95 378.554 1026.8 380.013 1027.05 379.195C1026.94 377.594 1028.63 375.405 1032.1 372.648C1035.55 369.854 1038.61 368.057 1041.28 367.239C1050.96 364.161 1058.73 366.438 1064.62 374.071C1070.5 381.668 1074.41 394.407 1076.37 412.287C1077.31 420.934 1077.67 426.129 1077.43 427.873C1077.18 429.581 1076.15 431.253 1074.3 432.855C1069.69 436.662 1065.99 437.178 1063.2 434.42C1060.44 431.68 1058.43 425.435 1057.15 415.703C1054.62 395.172 1051.35 385.244 1047.33 385.956C1044.66 386.667 1042.06 391.293 1039.5 399.833C1038.03 404.779 1037.38 412.109 1037.58 421.824C1037.81 431.502 1037.37 437.729 1036.23 440.469Z" fill="white"/>
<path d="M1132.3 391.292C1124.65 388.214 1119.39 388.285 1116.5 391.505C1114.8 393.694 1114.96 395.064 1117 395.633C1119.08 396.202 1123.58 396.736 1130.52 397.199C1137.21 397.679 1140.1 397.11 1139.21 395.491C1138.73 394.459 1136.43 393.053 1132.3 391.292ZM1165.32 401.184C1165.32 403.853 1163.62 406.628 1160.2 409.511C1156.82 412.411 1153.17 414.208 1149.24 414.919C1145.29 415.595 1138.09 415.987 1127.61 416.129C1117.11 416.236 1111.04 415.916 1109.39 415.204C1107.77 414.492 1106.97 414.386 1106.97 414.848L1109.1 420.257C1111.84 426.946 1115.19 430.701 1119.14 431.501C1123.02 432.177 1128.99 430.772 1137.07 427.302C1145.18 423.851 1150.11 421.947 1151.87 421.609C1153.67 421.289 1155.75 421.876 1158.14 423.388C1160.5 424.865 1161.8 427.213 1162.05 430.434C1162.28 433.672 1161.36 436.198 1159.28 438.048C1157.18 439.899 1152.67 442.301 1145.75 445.236C1138.81 448.19 1133.98 449.951 1131.24 450.574C1128.48 451.232 1124.37 451.321 1118.92 450.858C1113.51 450.378 1108.6 448.652 1104.19 445.663C1099.82 442.674 1096.15 438.191 1093.16 432.213C1090.17 426.199 1088.43 419.954 1087.97 413.496C1087.72 407.055 1088.57 401.451 1090.53 396.701C1092.52 391.968 1095.58 386.933 1099.71 381.613C1103.87 376.311 1107.5 372.913 1110.6 371.436C1113.73 369.924 1118.51 369.408 1124.97 369.871C1131.47 370.351 1136.73 371.508 1140.77 373.358C1147.69 376.774 1153.51 381.151 1158.21 386.453C1162.94 391.772 1165.32 396.683 1165.32 401.184Z" fill="white"/>
</svg>
